<?xml version="1.0" encoding="UTF-8"?><!DOCTYPE svg PUBLIC "-//W3C//DTD SVG 1.1//EN" "http://www.w3.org/Graphics/SVG/1.1/DTD/svg11.dtd"><svg xmlns="http://www.w3.org/2000/svg" xmlns:xlink="http://www.w3.org/1999/xlink" version="1.1" id="mdi-tauri" width="256" height="256" viewBox="0 0 24 24"><path d="M2.37,13.12L7.23,4.1C7.66,3.32 8.36,2.77 9.2,2.55L15.87,1.1C16.7,0.89 17.54,1.19 18.12,1.82L22.17,6.1C22.79,6.69 23.06,7.53 22.86,8.34L21.36,15C21.15,15.84 20.59,16.54 19.8,16.96L12.78,20.84C11.94,21.26 11.11,21.26 10.27,20.84L3.25,16.96C2.46,16.54 1.9,15.84 1.7,15L0.2,8.34C0,7.53 0.27,6.69 0.88,6.1L4.94,1.82C5.53,1.19 6.36,0.89 7.19,1.1L13.87,2.55C14.7,2.77 15.4,3.32 15.83,4.1L20.69,13.12C21.12,13.9 20.87,14.79 20.27,15.36L16.73,18.71C16.14,19.28 15.28,19.37 14.59,18.95L11.54,17.14L8.46,18.95C7.77,19.37 6.91,19.28 6.32,18.71L2.78,15.36C2.18,14.79 1.95,13.9 2.37,13.12M11.54,7.16L14.62,8.97L12.78,12.09L11.54,11.32L10.3,12.09L8.46,8.97L11.54,7.16M6.32,6.1L7.91,8.97L9.15,8.2L7.56,5.33L6.32,6.1M16.73,6.1L15.49,5.33L13.9,8.2L15.14,8.97L16.73,6.1M12.78,2.55L11.54,3.32L10.3,2.55L11.54,1.78L12.78,2.55M9.15,15L10.3,15.77L11.54,15L12.78,15.77L13.9,15L11.54,13.26L9.15,15M6.32,12.85L7.56,13.62L9.15,10.75L7.91,10L6.32,12.85M16.73,12.85L15.14,10L13.9,10.75L15.49,13.62L16.73,12.85M11.54,6.39L9.15,4.95L7.91,5.72L10.3,7.16L11.54,6.39M15.14,4.95L12.78,6.39L11.54,7.16L13.9,5.72L15.14,4.95Z" fill="#FFC107" /></svg>
