<svg width="256" height="256" viewBox="0 0 256 256" xmlns="http://www.w3.org/2000/svg" preserveAspectRatio="xMidYMid">
  <path fill="#646CFF" d="M229.82 68.63a11.68 11.68 0 0 0-16.14-2.28L143.5 121.1a12.25 12.25 0 0 1-12 1.45L68.2 90.27a11.68 11.68 0 0 0-16.13 2.28C44.23 103.29 32 124.62 32 150.73c0 35.25 20.12 64 63.88 64H160c39.75 0 64-24.25 64-58.75c0-26.11-12.23-47.44-24.18-57.35ZM168.12 190.5h-72.5c-22 0-31.88-7.63-31.88-22.13c0-12.5 7.88-23.87 19.25-29.5L159 106.12c4.38-2.5 8.25-2.62 10.38-.12c2.12 2.5 1 6.75-1.75 10.37l-52.5 65.25a4.13 4.13 0 0 0 6.38 5.25l53.37-42.25c5.5-4.13 11.63-4.38 15.5.25c4.12 4.75 2.5 12.12-2.75 17.25L170 180.5a3.87 3.87 0 0 0-.25 4.88c.5 1 1.38 1.12 2.13 1.12H168c7.25 0 11.38-2.25 14.25-6.37c2.25-3.5 2.62-7.12 1.25-10.25l-17.13-38.12a4.62 4.62 0 0 0-8.5-1.38l-25.5 40.62c-2.62 4.13-1.12 9.5 3.13 12.13c3.25 2 7.38 1.5 9.87-.88l39.13-36.37c5.12-4.62 11.5-5.5 16.37-2.25c5.12 3.5 7.12 9.5 5.25 15.37c-2.25 7.88-9.12 13.5-17.62 13.5Z"/>
  <path fill="#FFC107" d="m198.82 54.3-29.5-29.5a11.63 11.63 0 0 0-16.5 0l-29.5 29.5a11.63 11.63 0 1 0 16.5 16.5l12.25-12.24l12.25 12.24a11.63 11.63 0 0 0 16.5-16.5Z"/>
</svg>
