<svg xmlns="http://www.w3.org/2000/svg" xmlns:xlink="http://www.w3.org/1999/xlink" aria-hidden="true" role="img" class="iconify iconify--logos" width="256" height="256" preserveAspectRatio="xMidYMid meet" viewBox="0 0 256 256"><path fill="#61DAFB" d="M255.313 127.656c0-23.23-4.167-43.447-12.5-60.655c-8.333-17.208-20.333-31.187-36-41.937c-15.667-10.75-34.333-16.125-56-16.125s-40.333 5.375-56 16.125C79.146 34.02 67.146 47.999 58.813 65.207C50.479 82.416 46.313 102.634 46.313 127.656s4.166 43.448 12.5 60.656c8.334 17.208 20.334 31.187 36.001 41.937c15.666 10.75 34.333 16.125 56 16.125s40.333-5.375 56-16.125c15.667-10.75 27.667-24.729 36-41.937c8.334-17.208 12.5-37.427 12.5-60.656zm-127.657 0c0-15.041 2.625-28.062 7.875-39.062c5.25-11 12.5-19.438 21.75-25.313c9.25-5.875 19.75-8.812 31.5-8.812s22.25 2.937 31.5 8.812c9.25 5.875 16.5 14.313 21.75 25.313c5.25 11 7.875 24.021 7.875 39.062s-2.625 28.062-7.875 39.062c-5.25 11-12.5 19.438-21.75 25.313c-9.25 5.875-19.75 8.812-31.5 8.812s-22.25-2.937-31.5-8.812c-9.25-5.875-16.5-14.313-21.75-25.313c-5.25-11-7.875-24.021-7.875-39.062zM96.312 84.343c-6.833-11.5-10.25-24.521-10.25-39.062c0-6.042.75-12 2.25-17.875c6.25-24.75 20.125-43.25 41.625-55.5C140.062 1.383 152.687.04 166.187.04c12.334 0 23.334 2.333 33 7s17.5 11.167 23.5 19.5c-10.5-5.001-21.5-7.5-33-7.5c-20.084 0-36.75 5.083-50 15.25c-13.25 10.166-22.583 24.25-27.999 42.25c-5.417 18-5.417 36.75 0 56.25c5.416 19.5 14.75 34.917 27.999 46.25c13.25 11.334 29.917 17 50 17c11.5 0 22.5-2.5 33-7.5c-6 8.333-13.833 14.833-23.5 19.5c-9.666 4.666-20.666 7-33 7c-13.5 0-26.125-1.333-37.875-4c-21.5-12.25-35.375-30.75-41.625-55.5zM127.97 241c12.333 0 23.833-2.334 34.5-7c10.666-4.667 19.5-11.167 26.5-19.5c-10.5 5-21.5 7.5-33 7.5c-20.083 0-36.75-5.083-50-15.25C92.72 196.583 83.385 182.5 77.97 164.5c-5.417-18-5.417-36.75 0-56.25c5.416-19.5 14.75-34.917 27.999-46.25C119.22 50.75 135.885 45.083 155.97 45.083c11.5 0 22.5 2.5 33 7.5c-6-8.334-13.834-14.834-23.5-19.5C155.804 28.417 144.804 26 132.47 26c-13.5 0-26.125 1.333-37.875 4C73.095 42.25 59.22 60.75 52.97 85.5c-1.5 5.875-2.25 11.833-2.25 17.875c0 14.542 3.417 27.562 10.25 39.062s16.834 19.438 30 25.313c13.167 5.875 27.834 8.812 44 8.812s30.833-2.937 44-8.812c13.166-5.875 23.166-14.313 30-25.313c6.833-11.5 10.25-24.521 10.25-39.062c0-6.042-.75-12-2.25-17.875c-6.25-24.75-20.125-43.25-41.625-55.5C140.095 15.383 127.47 14.04 113.97 14.04c-12.333 0-23.333 2.333-33 7c-9.666 4.667-17.5 11.167-23.5 19.5c10.5-5 21.5-7.5 33-7.5c20.083 0 36.75 5.083 50 15.25c13.25 10.167 22.583 24.25 28 42.25c5.416 18 5.416 36.75 0 56.25c-5.417 19.5-14.75 34.917-28 46.25c-13.25 11.334-29.917 17-50 17c-11.5 0-22.5-2.5-33-7.5c6 8.333 13.833 14.833 23.5 19.5c9.667 4.666 20.667 7 33 7z"/></svg>
